<svg xmlns="http://www.w3.org/2000/svg" shape-rendering="crispEdges" viewBox="0 -0.5 256 256"><path stroke="#577282" d="M24 0h24m144 0h16M24 1h24m144 0h16M24 2h24m144 0h16M24 3h24m144 0h16M24 4h24m144 0h16M24 5h24m144 0h16M24 6h24m144 0h16M24 7h24m144 0h16M48 8h8m128 0h8m16 0h8M48 9h8m128 0h8m16 0h8M48 10h8m128 0h8m16 0h8M48 11h8m128 0h8m16 0h8M48 12h8m128 0h8m16 0h8M48 13h8m128 0h8m16 0h8M48 14h8m128 0h8m16 0h8M48 15h8m128 0h8m16 0h8M56 16h8m112 0h8m32 0h8M56 17h8m112 0h8m32 0h8M56 18h8m112 0h8m32 0h8M56 19h8m112 0h8m32 0h8M56 20h8m112 0h8m32 0h8M56 21h8m112 0h8m32 0h8M56 22h8m112 0h8m32 0h8M56 23h8m112 0h8m32 0h8M64 24h8m96 0h8m40 0h8M64 25h8m96 0h8m40 0h8M64 26h8m96 0h8m40 0h8M64 27h8m96 0h8m40 0h8M64 28h8m96 0h8m40 0h8M64 29h8m96 0h8m40 0h8M64 30h8m96 0h8m40 0h8M64 31h8m96 0h8m40 0h8M72 32h96m48 0h8M72 33h96m48 0h8M72 34h96m48 0h8M72 35h96m48 0h8M72 36h96m48 0h8M72 37h96m48 0h8M72 38h96m48 0h8M72 39h96m48 0h8m-8 1h8m-8 1h8m-8 1h8m-8 1h8m-8 1h8m-8 1h8m-8 1h8m-8 1h8m-8 1h8m-8 1h8m-8 1h8m-8 1h8m-8 1h8m-8 1h8m-8 1h8m-8 1h8m-8 1h8m-8 1h8m-8 1h8m-8 1h8m-8 1h8m-8 1h8m-8 1h8m-8 1h8m0 1h8m-8 1h8m-8 1h8m-8 1h8m-8 1h8m-8 1h8m-8 1h8m-8 1h8m0 1h8m-8 1h8m-8 1h8m-8 1h8m-8 1h8m-8 1h8m-8 1h8m-8 1h8m-8 1h8m-8 1h8m-8 1h8m-8 1h8m-8 1h8m-8 1h8m-8 1h8m-8 1h8m-8 1h8m-8 1h8m-8 1h8m-8 1h8m-8 1h8m-8 1h8m-8 1h8m-8 1h8m0 1h8m-8 1h8m-8 1h8m-8 1h8m-8 1h8m-8 1h8m-8 1h8m-8 1h8m-8 1h8m-8 1h8m-8 1h8m-8 1h8m-8 1h8m-8 1h8m-8 1h8m-8 1h8m-8 1h8m-8 1h8m-8 1h8m-8 1h8m-8 1h8m-8 1h8m-8 1h8m-8 1h8m-8 1h8m-8 1h8m-8 1h8m-8 1h8m-8 1h8m-8 1h8m-8 1h8m-8 1h8m-8 1h8m-8 1h8m-8 1h8m-8 1h8m-8 1h8m-8 1h8m-8 1h8m-8 1h8m-8 1h8m-8 1h8m-8 1h8m-8 1h8m-8 1h8m-8 1h8m-8 1h8m-8 1h8m-8 1h8m-8 1h8m-8 1h8m-8 1h8m-8 1h8m-8 1h8m-8 1h8m-8 1h8m-8 1h8m-8 1h8m-8 1h8m-8 1h8m-8 1h8m-8 1h8m-8 1h8m-8 1h8m-8 1h8m-8 1h8m-8 1h8m-8 1h8m-8 1h8m-8 1h8m-8 1h8m-8 1h8m-8 1h8m-8 1h8m-8 1h8m-8 1h8m-8 1h8m-8 1h8m-8 1h8m-8 1h8m-8 1h8m-8 1h8m-8 1h8m-8 1h8m-8 1h8m-8 1h8m-8 1h8m-8 1h8m-8 1h8m-8 1h8m-8 1h8m-8 1h8m-8 1h8m-8 1h8m-8 1h8m-8 1h8"/><path stroke="#394654" d="M24 8h8m-8 1h8m-8 1h8m-8 1h8m-8 1h8m-8 1h8m-8 1h8m-8 1h8m-8 1h8m-8 1h8m-8 1h8m-8 1h8m-8 1h8m-8 1h8m-8 1h8m-8 1h8m-8 1h8m-8 1h8m-8 1h8m-8 1h8m-8 1h8m-8 1h8m-8 1h8m-8 1h8m-8 1h8m-8 1h8m-8 1h8m-8 1h8m-8 1h8m-8 1h8m-8 1h8m-8 1h8m-8 1h16m-16 1h16m-16 1h16m-16 1h16m-16 1h16m-16 1h16m-16 1h16m-16 1h16m-24 1h8m-8 1h8m-8 1h8m-8 1h8m-8 1h8m-8 1h8m-8 1h8m-8 1h8m-8 1h8m-8 1h8m-8 1h8m-8 1h8m-8 1h8m-8 1h8m-8 1h8m-8 1h8m-8 1h8m-8 1h8m-8 1h8m-8 1h8m-8 1h8m-8 1h8m-8 1h8m-8 1h8m-8 1h8m-8 1h8m-8 1h8m-8 1h8m-8 1h8m-8 1h8m-8 1h8m-8 1h8m-8 1h8m-8 1h8m-8 1h8m-8 1h8m-8 1h8m-8 1h8m-8 1h8m-8 1h8m-8 1h8m-8 1h8m-8 1h8m-8 1h8m-8 1h8m-8 1h8m-8 1h8m-8 1h8M8 96h8m-8 1h8m-8 1h8m-8 1h8m-8 1h8m-8 1h8m-8 1h8m-8 1h8m-8 1h8m-8 1h8m-8 1h8m-8 1h8m-8 1h8m-8 1h8m-8 1h8m-8 1h8m-8 1h8m-8 1h8m-8 1h8m-8 1h8m-8 1h8m-8 1h8m-8 1h8m-8 1h8m-8 1h8m-8 1h8m-8 1h8m-8 1h8m-8 1h8m-8 1h8m-8 1h8m-8 1h8m-8 1h8m96 0h16m8 0h8M8 129h8m96 0h16m8 0h8M8 130h8m96 0h16m8 0h8M8 131h8m96 0h16m8 0h8M8 132h8m96 0h16m8 0h8M8 133h8m96 0h16m8 0h8M8 134h8m96 0h16m8 0h8M8 135h8m96 0h16m8 0h8M8 136h8m96 0h32M8 137h8m96 0h32M8 138h8m96 0h32M8 139h8m96 0h32M8 140h8m96 0h32M8 141h8m96 0h32M8 142h8m96 0h32M8 143h8m96 0h32M8 144h8m-8 1h8m-8 1h8m-8 1h8m-8 1h8m-8 1h8m-8 1h8m-8 1h8m-8 1h8m-8 1h8m-8 1h8m-8 1h8m-8 1h8m-8 1h8m-8 1h8m-8 1h8m-8 1h8m-8 1h8m-8 1h8m-8 1h8m-8 1h8m-8 1h8m-8 1h8m-8 1h8m-8 1h8m-8 1h8m-8 1h8m-8 1h8m-8 1h8m-8 1h8m-8 1h8m-8 1h8m0 1h8m-8 1h8m-8 1h8m-8 1h8m-8 1h8m-8 1h8m-8 1h8m-8 1h8m-8 1h8m-8 1h8m-8 1h8m-8 1h8m-8 1h8m-8 1h8m-8 1h8m-8 1h8m-8 1h8m-8 1h8m-8 1h8m-8 1h8m-8 1h8m-8 1h8m-8 1h8m-8 1h8m-8 1h8m-8 1h8m-8 1h8m-8 1h8m-8 1h8m-8 1h8m-8 1h8m-8 1h8"/><path stroke="#8dc9f0" d="M32 8h8m-8 1h8m-8 1h8m-8 1h8m-8 1h8m-8 1h8m-8 1h8m-8 1h8m0 1h8m-8 1h8m-8 1h8m-8 1h8m-8 1h8m-8 1h8m-8 1h8m-8 1h8m-8 1h16m-16 1h16m-16 1h16m-16 1h16m-16 1h16m-16 1h16m-16 1h16m-16 1h16m-8 1h8m120 0h8M48 33h8m120 0h8M48 34h8m120 0h8M48 35h8m120 0h8M48 36h8m120 0h8M48 37h8m120 0h8M48 38h8m120 0h8M48 39h8m120 0h8M56 40h8m120 0h16M56 41h8m120 0h16M56 42h8m120 0h16M56 43h8m120 0h16M56 44h8m120 0h16M56 45h8m120 0h16M56 46h8m120 0h16M56 47h8m120 0h16M24 48h8m8 0h16m144 0h8M24 49h8m8 0h16m144 0h8M24 50h8m8 0h16m144 0h8M24 51h8m8 0h16m144 0h8M24 52h8m8 0h16m144 0h8M24 53h8m8 0h16m144 0h8M24 54h8m8 0h16m144 0h8M24 55h8m8 0h16m144 0h8M16 96h8m112 0h8M16 97h8m112 0h8M16 98h8m112 0h8M16 99h8m112 0h8m-128 1h8m112 0h8m-128 1h8m112 0h8m-128 1h8m112 0h8m-128 1h8m112 0h8m-128 1h8m112 0h8m-128 1h8m112 0h8m-128 1h8m112 0h8m-128 1h8m112 0h8m-128 1h8m112 0h8m-128 1h8m112 0h8m-128 1h8m112 0h8m-128 1h8m112 0h8m-128 1h8m112 0h8m-128 1h8m112 0h8m-128 1h8m112 0h8m-128 1h8m112 0h8m-128 1h8m112 0h8m-128 1h8m112 0h8m-128 1h8m112 0h8m-128 1h8m112 0h8m-128 1h8m112 0h8m-128 1h8m112 0h8m-128 1h8m112 0h8m-128 1h8m112 0h8m-128 1h8m112 0h8m-128 1h8m112 0h8m-128 1h8m112 0h8m-128 1h8m112 0h8m-128 1h8m-8 1h8m-8 1h8m-8 1h8m-8 1h8m-8 1h8m-8 1h8m-8 1h8m-8 1h16m72 0h8m32 0h8m-136 1h16m72 0h8m32 0h8m-136 1h16m72 0h8m32 0h8m-136 1h16m72 0h8m32 0h8m-136 1h16m72 0h8m32 0h8m-136 1h16m72 0h8m32 0h8m-136 1h16m72 0h8m32 0h8m-136 1h16m72 0h8m32 0h8m-136 1h8m8 0h8m112 0h8m-144 1h8m8 0h8m112 0h8m-144 1h8m8 0h8m112 0h8m-144 1h8m8 0h8m112 0h8m-144 1h8m8 0h8m112 0h8m-144 1h8m8 0h8m112 0h8m-144 1h8m8 0h8m112 0h8m-144 1h8m8 0h8m112 0h8m-144 1h8m72 0h8m-88 1h8m72 0h8m-88 1h8m72 0h8m-88 1h8m72 0h8m-88 1h8m72 0h8m-88 1h8m72 0h8m-88 1h8m72 0h8m-88 1h8m72 0h8m-88 1h16m16 0h16m32 0h8m88 0h16m-192 1h16m16 0h16m32 0h8m88 0h16m-192 1h16m16 0h16m32 0h8m88 0h16m-192 1h16m16 0h16m32 0h8m88 0h16m-192 1h16m16 0h16m32 0h8m88 0h16m-192 1h16m16 0h16m32 0h8m88 0h16m-192 1h16m16 0h16m32 0h8m88 0h16m-192 1h16m16 0h16m32 0h8m88 0h16m-192 1h24m64 0h8m32 0h8m-136 1h24m64 0h8m32 0h8m-136 1h24m64 0h8m32 0h8m-136 1h24m64 0h8m32 0h8m-136 1h24m64 0h8m32 0h8m-136 1h24m64 0h8m32 0h8m-136 1h24m64 0h8m32 0h8m-136 1h24m64 0h8m32 0h8m-128 1h16m8 0h8m56 0h32m-120 1h16m8 0h8m56 0h32m-120 1h16m8 0h8m56 0h32m-120 1h16m8 0h8m56 0h32m-120 1h16m8 0h8m56 0h32m-120 1h16m8 0h8m56 0h32m-120 1h16m8 0h8m56 0h32m-120 1h16m8 0h8m56 0h32m-120 1h32m-32 1h32m-32 1h32m-32 1h32m-32 1h32m-32 1h32m-32 1h32m-32 1h32m-32 1h24m8 0h24m-56 1h24m8 0h24m-56 1h24m8 0h24m-56 1h24m8 0h24m-56 1h24m8 0h24m-56 1h24m8 0h24m-56 1h24m8 0h24m-56 1h24m8 0h24m-56 1h72m120 0h24m-216 1h72m120 0h24m-216 1h72m120 0h24m-216 1h72m120 0h24m-216 1h72m120 0h24m-216 1h72m120 0h24m-216 1h72m120 0h24m-216 1h72m120 0h24m-208 1h104m48 0h56m-208 1h104m48 0h56m-208 1h104m48 0h56m-208 1h104m48 0h56m-208 1h104m48 0h56m-208 1h104m48 0h56m-208 1h104m48 0h56m-208 1h104m48 0h56m-192 1h176m-176 1h176m-176 1h176m-176 1h176m-176 1h176m-176 1h176m-176 1h176m-176 1h176m-160 1h136m-136 1h136m-136 1h136m-136 1h136m-136 1h136m-136 1h136m-136 1h136m-136 1h136m-128 1h112m-112 1h112m-112 1h112m-112 1h112m-112 1h112m-112 1h112m-112 1h112m-112 1h112m-88 1h64m-64 1h64m-64 1h64m-64 1h64m-64 1h64m-64 1h64m-64 1h64m-64 1h64"/><path stroke="#96d6ff" d="M40 8h8m144 0h16M40 9h8m144 0h16M40 10h8m144 0h16M40 11h8m144 0h16M40 12h8m144 0h16M40 13h8m144 0h16M40 14h8m144 0h16M40 15h8m144 0h16M48 16h8m128 0h16m8 0h8M48 17h8m128 0h16m8 0h8M48 18h8m128 0h16m8 0h8M48 19h8m128 0h16m8 0h8M48 20h8m128 0h16m8 0h8M48 21h8m128 0h16m8 0h8M48 22h8m128 0h16m8 0h8M48 23h8m128 0h16m8 0h8M56 24h8m112 0h16m16 0h8M56 25h8m112 0h16m16 0h8M56 26h8m112 0h16m16 0h8M56 27h8m112 0h16m16 0h8M56 28h8m112 0h16m16 0h8M56 29h8m112 0h16m16 0h8M56 30h8m112 0h16m16 0h8M56 31h8m112 0h16m16 0h8M56 32h16m96 0h8m32 0h8M56 33h16m96 0h8m32 0h8M56 34h16m96 0h8m32 0h8M56 35h16m96 0h8m32 0h8M56 36h16m96 0h8m32 0h8M56 37h16m96 0h8m32 0h8M56 38h16m96 0h8m32 0h8M56 39h16m96 0h8m32 0h8M64 40h120m24 0h8M64 41h120m24 0h8M64 42h120m24 0h8M64 43h120m24 0h8M64 44h120m24 0h8M64 45h120m24 0h8M64 46h120m24 0h8M64 47h120m24 0h8M32 48h8m16 0h144m8 0h8M32 49h8m16 0h144m8 0h8M32 50h8m16 0h144m8 0h8M32 51h8m16 0h144m8 0h8M32 52h8m16 0h144m8 0h8M32 53h8m16 0h144m8 0h8M32 54h8m16 0h144m8 0h8M32 55h8m16 0h144m8 0h8M24 56h192M24 57h192M24 58h192M24 59h192M24 60h192M24 61h192M24 62h192M24 63h192M24 64h200M24 65h200M24 66h200M24 67h200M24 68h200M24 69h200M24 70h200M24 71h200M24 72h24m40 0h80m40 0h24M24 73h24m40 0h80m40 0h24M24 74h24m40 0h80m40 0h24M24 75h24m40 0h80m40 0h24M24 76h24m40 0h80m40 0h24M24 77h24m40 0h80m40 0h24M24 78h24m40 0h80m40 0h24M24 79h24m40 0h80m40 0h24M24 80h16m56 0h64m56 0h16M24 81h16m56 0h64m56 0h16M24 82h16m56 0h64m56 0h16M24 83h16m56 0h64m56 0h16M24 84h16m56 0h64m56 0h16M24 85h16m56 0h64m56 0h16M24 86h16m56 0h64m56 0h16M24 87h16m56 0h64m56 0h16M24 88h8m72 0h48m72 0h8M24 89h8m72 0h48m72 0h8M24 90h8m72 0h48m72 0h8M24 91h8m72 0h48m72 0h8M24 92h8m72 0h48m72 0h8M24 93h8m72 0h48m72 0h8M24 94h8m72 0h48m72 0h8M24 95h8m72 0h48m72 0h8m-120 1h24m96 0h8m-128 1h24m96 0h8m-128 1h24m96 0h8m-128 1h24m96 0h8m-128 1h24m96 0h8m-128 1h24m96 0h8m-128 1h24m96 0h8m-128 1h24m96 0h8m-128 1h24m96 0h8m-128 1h24m96 0h8m-128 1h24m96 0h8m-128 1h24m96 0h8m-128 1h24m96 0h8m-128 1h24m96 0h8m-128 1h24m96 0h8m-128 1h24m96 0h8m-128 1h24m96 0h8m-128 1h24m96 0h8m-128 1h24m96 0h8m-128 1h24m96 0h8m-128 1h24m96 0h8m-128 1h24m96 0h8m-128 1h24m96 0h8m-128 1h24m96 0h8m-128 1h24m96 0h8m-128 1h24m96 0h8m-128 1h24m96 0h8m-128 1h24m96 0h8m-128 1h24m96 0h8m-128 1h24m96 0h8m-128 1h24m96 0h8m-128 1h24m96 0h8m-16 1h16m-16 1h16m-16 1h16m-16 1h16m-16 1h16m-16 1h16m-16 1h16m-16 1h16m-16 1h16m-16 1h16m-16 1h16m-16 1h16m-16 1h16m-16 1h16m-16 1h16m-16 1h16m-216 1h8m64 0h8m112 0h24m-216 1h8m64 0h8m112 0h24m-216 1h8m64 0h8m112 0h24m-216 1h8m64 0h8m112 0h24m-216 1h8m64 0h8m112 0h24m-216 1h8m64 0h8m112 0h24m-216 1h8m64 0h8m112 0h24m-216 1h8m64 0h8m112 0h24m-216 1h8m120 0h8m72 0h8m-216 1h8m120 0h8m72 0h8m-216 1h8m120 0h8m72 0h8m-216 1h8m120 0h8m72 0h8m-216 1h8m120 0h8m72 0h8m-216 1h8m120 0h8m72 0h8m-216 1h8m120 0h8m72 0h8m-216 1h8m120 0h8m72 0h8m-208 1h16m40 0h8m56 0h16m40 0h32m-208 1h16m40 0h8m56 0h16m40 0h32m-208 1h16m40 0h8m56 0h16m40 0h32m-208 1h16m40 0h8m56 0h16m40 0h32m-208 1h16m40 0h8m56 0h16m40 0h32m-208 1h16m40 0h8m56 0h16m40 0h32m-208 1h16m40 0h8m56 0h16m40 0h32m-208 1h16m40 0h8m56 0h16m40 0h32m-200 1h8m16 0h24m8 0h8m48 0h8m8 0h24m16 0h32m-200 1h8m16 0h24m8 0h8m48 0h8m8 0h24m16 0h32m-200 1h8m16 0h24m8 0h8m48 0h8m8 0h24m16 0h32m-200 1h8m16 0h24m8 0h8m48 0h8m8 0h24m16 0h32m-200 1h8m16 0h24m8 0h8m48 0h8m8 0h24m16 0h32m-200 1h8m16 0h24m8 0h8m48 0h8m8 0h24m16 0h32m-200 1h8m16 0h24m8 0h8m48 0h8m8 0h24m16 0h32m-200 1h8m16 0h24m8 0h8m48 0h8m8 0h24m16 0h32m-184 1h16m16 0h24m32 0h24m16 0h24m16 0h16m-184 1h16m16 0h24m32 0h24m16 0h24m16 0h16m-184 1h16m16 0h24m32 0h24m16 0h24m16 0h16m-184 1h16m16 0h24m32 0h24m16 0h24m16 0h16m-184 1h16m16 0h24m32 0h24m16 0h24m16 0h16m-184 1h16m16 0h24m32 0h24m16 0h24m16 0h16m-184 1h16m16 0h24m32 0h24m16 0h24m16 0h16m-184 1h16m16 0h24m32 0h24m16 0h24m16 0h16m-168 1h112m8 0h48m-168 1h112m8 0h48m-168 1h112m8 0h48m-168 1h112m8 0h48m-168 1h112m8 0h48m-168 1h112m8 0h48m-168 1h112m8 0h48m-168 1h112m8 0h48m-160 1h112m8 0h40m-160 1h112m8 0h40m-160 1h112m8 0h40m-160 1h112m8 0h40m-160 1h112m8 0h40m-160 1h112m8 0h40m-160 1h112m8 0h40m-160 1h112m8 0h40m-144 1h104m8 0h8m-120 1h104m8 0h8m-120 1h104m8 0h8m-120 1h104m8 0h8m-120 1h104m8 0h8m-120 1h104m8 0h8m-120 1h104m8 0h8m-120 1h104m8 0h8m-80 1h48m-48 1h48m-48 1h48m-48 1h48m-48 1h48m-48 1h48m-48 1h48m-48 1h48"/><path stroke="#f8d3dd" d="M32 16h8m-8 1h8m-8 1h8m-8 1h8m-8 1h8m-8 1h8m-8 1h8m-8 1h8m-8 1h8m160 0h8M32 25h8m160 0h8M32 26h8m160 0h8M32 27h8m160 0h8M32 28h8m160 0h8M32 29h8m160 0h8M32 30h8m160 0h8M32 31h8m160 0h8M40 32h8m144 0h16M40 33h8m144 0h16M40 34h8m144 0h16M40 35h8m144 0h16M40 36h8m144 0h16M40 37h8m144 0h16M40 38h8m144 0h16M40 39h8m144 0h16M48 40h8m-8 1h8m-8 1h8m-8 1h8m-8 1h8m-8 1h8m-8 1h8m-8 1h8"/><path stroke="#e2b6c2" d="M200 16h8m-8 1h8m-8 1h8m-8 1h8m-8 1h8m-8 1h8m-8 1h8m-8 1h8m-16 1h8m-8 1h8m-8 1h8m-8 1h8m-8 1h8m-8 1h8m-8 1h8m-8 1h8M32 32h8m144 0h8M32 33h8m144 0h8M32 34h8m144 0h8M32 35h8m144 0h8M32 36h8m144 0h8M32 37h8m144 0h8M32 38h8m144 0h8M32 39h8m144 0h8M40 40h8m152 0h8M40 41h8m152 0h8M40 42h8m152 0h8M40 43h8m152 0h8M40 44h8m152 0h8M40 45h8m152 0h8M40 46h8m152 0h8M40 47h8m152 0h8"/><path stroke="#fff" d="M48 72h40m88 0h32M48 73h40m88 0h32M48 74h40m88 0h32M48 75h40m88 0h32M48 76h40m88 0h32M48 77h40m88 0h32M48 78h40m88 0h32M48 79h40m88 0h32M40 80h56m72 0h48M40 81h56m72 0h48M40 82h56m72 0h48M40 83h56m72 0h48M40 84h56m72 0h48M40 85h56m72 0h48M40 86h56m72 0h48M40 87h56m72 0h48M32 88h72m64 0h56M32 89h72m64 0h56M32 90h72m64 0h56M32 91h72m64 0h56M32 92h72m64 0h56M32 93h72m64 0h56M32 94h72m64 0h56M32 95h72m64 0h56M24 96h32m24 0h32m48 0h16m24 0h32M24 97h32m24 0h32m48 0h16m24 0h32M24 98h32m24 0h32m48 0h16m24 0h32M24 99h32m24 0h32m48 0h16m24 0h32m-208 1h32m24 0h32m48 0h16m24 0h32m-208 1h32m24 0h32m48 0h16m24 0h32m-208 1h32m24 0h32m48 0h16m24 0h32m-208 1h32m24 0h32m48 0h16m24 0h32m-200 1h16m16 0h16m8 0h24m48 0h8m16 0h16m8 0h24m-200 1h16m16 0h16m8 0h24m48 0h8m16 0h16m8 0h24m-200 1h16m16 0h16m8 0h24m48 0h8m16 0h16m8 0h24m-200 1h16m16 0h16m8 0h24m48 0h8m16 0h16m8 0h24m-200 1h16m16 0h16m8 0h24m48 0h8m16 0h16m8 0h24m-200 1h16m16 0h16m8 0h24m48 0h8m16 0h16m8 0h24m-200 1h16m16 0h16m8 0h24m48 0h8m16 0h16m8 0h24m-200 1h16m16 0h16m8 0h24m48 0h8m16 0h16m8 0h24m-192 1h8m16 0h16m8 0h24m48 0h8m16 0h16m8 0h24m-192 1h8m16 0h16m8 0h24m48 0h8m16 0h16m8 0h24m-192 1h8m16 0h16m8 0h24m48 0h8m16 0h16m8 0h24m-192 1h8m16 0h16m8 0h24m48 0h8m16 0h16m8 0h24m-192 1h8m16 0h16m8 0h24m48 0h8m16 0h16m8 0h24m-192 1h8m16 0h16m8 0h24m48 0h8m16 0h16m8 0h24m-192 1h8m16 0h16m8 0h24m48 0h8m16 0h16m8 0h24m-192 1h8m16 0h16m8 0h24m48 0h8m16 0h16m8 0h24m-192 1h8m40 0h24m48 0h8m40 0h24m-192 1h8m40 0h24m48 0h8m40 0h24m-192 1h8m40 0h24m48 0h8m40 0h24m-192 1h8m40 0h24m48 0h8m40 0h24m-192 1h8m40 0h24m48 0h8m40 0h24m-192 1h8m40 0h24m48 0h8m40 0h24m-192 1h8m40 0h24m48 0h8m40 0h24m-192 1h8m40 0h24m48 0h8m40 0h24m-184 1h8m24 0h32m16 0h8m32 0h8m24 0h24m-176 1h8m24 0h32m16 0h8m32 0h8m24 0h24m-176 1h8m24 0h32m16 0h8m32 0h8m24 0h24m-176 1h8m24 0h32m16 0h8m32 0h8m24 0h24m-176 1h8m24 0h32m16 0h8m32 0h8m24 0h24m-176 1h8m24 0h32m16 0h8m32 0h8m24 0h24m-176 1h8m24 0h32m16 0h8m32 0h8m24 0h24m-176 1h8m24 0h32m16 0h8m32 0h8m24 0h24m-168 1h40m80 0h40m-160 1h40m80 0h40m-160 1h40m80 0h40m-160 1h40m80 0h40m-160 1h40m80 0h40m-160 1h40m80 0h40m-160 1h40m80 0h40m-160 1h40m80 0h40m-104 17h32m-32 1h32m-32 1h32m-32 1h32m-32 1h32m-32 1h32m-32 1h32m-32 1h32m-32 1h32m-32 1h32m-32 1h32m-32 1h32m-32 1h32m-32 1h32m-32 1h32m-32 1h32"/><path stroke="#f0f0f0" d="M168 72h8m-8 1h8m-8 1h8m-8 1h8m-8 1h8m-8 1h8m-8 1h8m-8 1h8m-16 1h8m-8 1h8m-8 1h8m-8 1h8m-8 1h8m-8 1h8m-8 1h8m-8 1h8m-16 1h16m-16 1h16m-16 1h16m-16 1h16m-16 1h16m-16 1h16m-16 1h16m-16 1h16m-24 1h16m-16 1h16m-16 1h16m-16 1h16m-16 1h16m-16 1h16m-16 1h16m-16 1h16m-136 1h8m112 0h16m-136 1h8m112 0h16m-136 1h8m112 0h16m-136 1h8m112 0h16m-136 1h8m112 0h16m-136 1h8m112 0h16m-136 1h8m112 0h16m-136 1h8m112 0h16m-136 1h16m104 0h16m-136 1h16m104 0h16m-136 1h16m104 0h16m-136 1h16m104 0h16m-136 1h16m104 0h16m-136 1h16m104 0h16m-136 1h16m104 0h16m-136 1h16m104 0h16m-136 1h16m104 0h16m-136 1h16m104 0h16m-136 1h16m104 0h16m-136 1h16m104 0h16m-136 1h16m104 0h16m-136 1h16m104 0h16m-136 1h16m104 0h16m-136 1h16m104 0h16m-136 1h24m96 0h24m-144 1h24m96 0h24m-144 1h24m96 0h24m-144 1h24m96 0h24m-144 1h24m96 0h24m-144 1h24m96 0h24m-144 1h24m96 0h24m-144 1h24m96 0h24m-136 1h24m40 0h8m48 0h24m40 0h8m-192 1h24m40 0h8m48 0h24m40 0h8m-192 1h24m40 0h8m48 0h24m40 0h8m-192 1h24m40 0h8m48 0h24m40 0h8m-192 1h24m40 0h8m48 0h24m40 0h8m-192 1h24m40 0h8m48 0h24m40 0h8m-192 1h24m40 0h8m48 0h24m40 0h8m-192 1h24m40 0h8m48 0h24m40 0h8m-184 1h8m40 0h8m64 0h8m40 0h8m-176 1h8m40 0h8m64 0h8m40 0h8m-176 1h8m40 0h8m64 0h8m40 0h8m-176 1h8m40 0h8m64 0h8m40 0h8m-176 1h8m40 0h8m64 0h8m40 0h8m-176 1h8m40 0h8m64 0h8m40 0h8m-176 1h8m40 0h8m64 0h8m40 0h8m-176 1h8m40 0h8m64 0h8m40 0h8m-168 1h40m80 0h40m-160 1h40m80 0h40m-160 1h40m80 0h40m-160 1h40m80 0h40m-160 1h40m80 0h40m-160 1h40m80 0h40m-160 1h40m80 0h40m-160 1h40m80 0h40"/><path stroke="#000" d="M56 96h24m96 0h24M56 97h24m96 0h24M56 98h24m96 0h24M56 99h24m96 0h24m-144 1h24m96 0h24m-144 1h24m96 0h24m-144 1h24m96 0h24m-144 1h24m96 0h24m-152 1h16m16 0h8m80 0h16m16 0h8m-160 1h16m16 0h8m80 0h16m16 0h8m-160 1h16m16 0h8m80 0h16m16 0h8m-160 1h16m16 0h8m80 0h16m16 0h8m-160 1h16m16 0h8m80 0h16m16 0h8m-160 1h16m16 0h8m80 0h16m16 0h8m-160 1h16m16 0h8m80 0h16m16 0h8m-160 1h16m16 0h8m80 0h16m16 0h8m-160 1h16m16 0h8m80 0h16m16 0h8m-160 1h16m16 0h8m80 0h16m16 0h8m-160 1h16m16 0h8m80 0h16m16 0h8m-160 1h16m16 0h8m80 0h16m16 0h8m-160 1h16m16 0h8m80 0h16m16 0h8m-160 1h16m16 0h8m80 0h16m16 0h8m-160 1h16m16 0h8m80 0h16m16 0h8m-160 1h16m16 0h8m80 0h16m16 0h8m-160 1h40m80 0h40m-160 1h40m80 0h40m-160 1h40m80 0h40m-160 1h40m80 0h40m-160 1h40m80 0h40m-160 1h40m80 0h40m-160 1h40m80 0h40m-160 1h40m80 0h40m-152 1h24m96 0h24m-144 1h24m96 0h24m-144 1h24m96 0h24m-144 1h24m96 0h24m-144 1h24m96 0h24m-144 1h24m96 0h24m-144 1h24m96 0h24m-144 1h24m96 0h24m-152 9h40m80 0h40m-160 1h40m80 0h40m-160 1h40m80 0h40m-160 1h40m80 0h40m-160 1h40m80 0h40m-160 1h40m80 0h40m-160 1h40m80 0h40m-160 1h40m80 0h40m-176 1h16m40 0h8m64 0h8m40 0h24m-200 1h16m40 0h8m64 0h8m40 0h24m-200 1h16m40 0h8m64 0h8m40 0h24m-200 1h16m40 0h8m64 0h8m40 0h24m-200 1h16m40 0h8m64 0h8m40 0h24m-200 1h16m40 0h8m64 0h8m40 0h24m-200 1h16m40 0h8m64 0h8m40 0h24m-200 1h16m40 0h8m64 0h8m40 0h24m-168 1h24m80 0h24m-128 1h24m80 0h24m-128 1h24m80 0h24m-128 1h24m80 0h24m-128 1h24m80 0h24m-128 1h24m80 0h24m-128 1h24m80 0h24m-128 1h24m80 0h24m-144 1h16m24 0h8m64 0h8m24 0h16m-160 1h16m24 0h8m64 0h8m24 0h16m-160 1h16m24 0h8m64 0h8m24 0h16m-160 1h16m24 0h8m64 0h8m24 0h16m-160 1h16m24 0h8m64 0h8m24 0h16m-160 1h16m24 0h8m64 0h8m24 0h16m-160 1h16m24 0h8m64 0h8m24 0h16m-160 1h16m24 0h8m64 0h8m24 0h16m-168 1h8m24 0h16m80 0h16m24 0h16m-184 1h8m24 0h16m80 0h16m24 0h16m-184 1h8m24 0h16m80 0h16m24 0h16m-184 1h8m24 0h16m80 0h16m24 0h16m-184 1h8m24 0h16m80 0h16m24 0h16m-184 1h8m24 0h16m80 0h16m24 0h16m-184 1h8m24 0h16m80 0h16m24 0h16m-184 1h8m24 0h16m80 0h16m24 0h16m-168 1h16m112 0h8m-136 1h16m112 0h8m-136 1h16m112 0h8m-136 1h16m112 0h8m-136 1h16m112 0h8m-136 1h16m112 0h8m-136 1h16m112 0h8m-136 1h16m112 0h8m-144 1h8m136 0h8m-152 1h8m136 0h8m-152 1h8m136 0h8m-152 1h8m136 0h8m-152 1h8m136 0h8m-152 1h8m136 0h8m-152 1h8m136 0h8m-152 1h8m136 0h8m0 1h8m-8 1h8m-8 1h8m-8 1h8m-8 1h8m-8 1h8m-8 1h8m-8 1h8"/><path stroke="#c9c0a9" d="M104 144h8m-8 1h8m-8 1h8m-8 1h8m-8 1h8m-8 1h8m-8 1h8m-8 1h8m-8 1h24m-24 1h24m-24 1h24m-24 1h24m-24 1h24m-24 1h24m-24 1h24m-24 1h24m-24 1h8m32 0h8m-48 1h8m32 0h8m-48 1h8m32 0h8m-48 1h8m32 0h8m-48 1h8m32 0h8m-48 1h8m32 0h8m-48 1h8m32 0h8m-48 1h8m32 0h8"/><path stroke="#e1d6b9" d="M112 144h40m-40 1h40m-40 1h40m-40 1h40m-40 1h40m-40 1h40m-40 1h40m-40 1h40m-24 1h24m-24 1h24m-24 1h24m-24 1h24m-24 1h24m-24 1h24m-24 1h24m-24 1h24"/></svg>